<svg xmlns="http://www.w3.org/2000/svg" width="120" height="76"><g fill="none" fill-rule="evenodd"><path fill="#F4F4F4" d="M111.999 0H8C3.582 0 0 3.59 0 8.008v59.984C0 72.415 3.591 76 8.001 76H112c4.419 0 8.001-3.59 8.001-8.008V8.008C120 3.585 116.409 0 111.999 0Z"/><path fill="#1AAF5D" d="M78.634 38.873H84.079a3.09 3.09 0 0 1 .27.017 4.587 4.587 0 0 1 .27.034 1.3 1.3 0 0 1 .054.01l.036.008a2.207 2.207 0 0 1 .36.115 2.465 2.465 0 0 1 .63.378 2.499 2.499 0 0 1 .45.495 2.423 2.423 0 0 1 .423 1.4 2.596 2.596 0 0 1-.153.879 2.418 2.418 0 0 1-.72 1.019 2.357 2.357 0 0 1-.81.44 2.348 2.348 0 0 1-.18.05l-.036.007a1.146 1.146 0 0 1-.144.025 3.822 3.822 0 0 1-.36.033 3.35 3.35 0 0 1-.09.004H78.634v-4.914Zm7.245-5.563a2.44 2.44 0 0 1-.18 1.56 2.136 2.136 0 0 1-.81.879 2.261 2.261 0 0 1-.72.289l-.09.018-.021.003a1.493 1.493 0 0 1-.159.02 4.99 4.99 0 0 1-.36.022H78.635v-4.535H83.577l.053.002a3.846 3.846 0 0 1 .27.02 5.279 5.279 0 0 1 .158.018l.021.004a2.26 2.26 0 0 1 .45.128 2.387 2.387 0 0 1 .54.303 2.246 2.246 0 0 1 .36.344 2.175 2.175 0 0 1 .45.925s-.023-.106 0 0ZM97.038 9.794h.036v46.578a9.415 9.415 0 0 1-.576 3.231 9.339 9.339 0 0 1-1.62 2.774l-.09.106a9.685 9.685 0 0 1-.27.296l-.09.093-.09.092-.09.088-.09.087a9.541 9.541 0 0 1-.45.399l-.09.073-.09.072-.09.07-.09.069-.09.066-.09.066-.09.063-.09.062-.09.06-.09.06-.09.057a8.639 8.639 0 0 1-.18.11l-.09.054-.09.052-.09.05-.09.05-.09.047-.09.047-.09.045-.09.045-.09.043-.09.042-.09.04-.09.04-.09.039-.09.037-.09.036-.09.035-.09.034-.09.033-.09.032-.09.031-.09.03-.09.029-.09.028-.09.026-.09.027-.09.024-.09.024-.09.023-.09.022-.09.021-.09.02-.09.02-.09.017-.09.018-.09.017-.09.014-.09.015-.09.014-.09.012c-.03.005-.06.01-.09.013l-.09.01-.09.01-.09.01-.09.008-.09.008-.09.006-.09.006-.09.005-.09.004-.09.003-.09.003h-.09l-.09.002H74.075V46.696H88.578l.09-.002.09-.001.09-.003.09-.003.09-.005.09-.005.09-.006.09-.007.09-.009.09-.008.09-.01.09-.011.09-.012.09-.013.09-.014.09-.015.09-.017c.03-.005.06-.01.09-.017l.09-.018.09-.02.09-.02.09-.022a6.9 6.9 0 0 0 .36-.1l.09-.028a5.773 5.773 0 0 0 .27-.092l.09-.034.09-.036.09-.036a5.73 5.73 0 0 0 .63-.31 5.054 5.054 0 0 0 .81-.567 4.591 4.591 0 0 0 .72-.783 4.164 4.164 0 0 0 .54-1.056 4.082 4.082 0 0 0 .18-.776 4.5 4.5 0 0 0 0-1.182 3.954 3.954 0 0 0-.27-.982 3.72 3.72 0 0 0-.36-.658 3.96 3.96 0 0 0-.63-.726 4.642 4.642 0 0 0-.63-.49 5.293 5.293 0 0 0-.72-.399 5.792 5.792 0 0 0-.27-.117l-.09-.036a6.805 6.805 0 0 0-.09-.035l-.09-.033a7.97 7.97 0 0 0-.36-.118l-.09-.027-.09-.025a6.923 6.923 0 0 0-.45-.108l-.09-.018-.09-.017-.09-.016-.09-.016-.09-.014a7.072 7.072 0 0 0-.09-.013l-.09-.012-.09-.011-.09-.01-.09-.01-.09-.008-.09-.008-.083-.006v-.108l.083-.013.09-.015.09-.016.09-.017.09-.018.09-.02a6.367 6.367 0 0 0 .81-.24 6.098 6.098 0 0 0 .45-.192 5.313 5.313 0 0 0 .63-.36 4.366 4.366 0 0 0 1.17-1.171 3.916 3.916 0 0 0 .63-1.781 4.249 4.249 0 0 0 0-.885 4.135 4.135 0 0 0-.18-.862 3.778 3.778 0 0 0-.45-.918 3.686 3.686 0 0 0-.45-.547 4.017 4.017 0 0 0-.45-.394 4.243 4.243 0 0 0-.45-.302 5.052 5.052 0 0 0-.63-.317 6.503 6.503 0 0 0-.63-.228l-.09-.027a6.631 6.631 0 0 0-.18-.049l-.09-.023a6.615 6.615 0 0 0-.18-.042l-.09-.019-.09-.018-.09-.017-.09-.015-.09-.015-.09-.014-.09-.013-.09-.012-.09-.01-.09-.01-.09-.009-.09-.008-.09-.007-.09-.006-.09-.005-.036-.002-.054-.004-.09-.005-.09-.005-.09-.005-.09-.004-.09-.004-.09-.003-.09-.003-.09-.002-.09-.001H74.075V19.11a9.348 9.348 0 0 1 .734-3.63 9.509 9.509 0 0 1 .54-1.073 9.23 9.23 0 0 1 .36-.566l.09-.13.09-.122.09-.12.09-.117.09-.112.09-.109.09-.106.09-.102.09-.1a9.986 9.986 0 0 1 .18-.191l.09-.092.09-.089.09-.088.09-.083.09-.083.09-.08a9.976 9.976 0 0 1 .36-.301l.09-.07.09-.07a9.73 9.73 0 0 1 .18-.132l.09-.064.09-.063.09-.06.09-.06.09-.058.09-.056.09-.055.09-.053.09-.053.09-.05.09-.05.09-.048.09-.048.09-.045.09-.045.09-.043.09-.042.09-.042.09-.04.09-.039.09-.037.09-.036.09-.036.09-.034.09-.034.09-.031.09-.032.09-.03.09-.029c.03-.01.06-.02.09-.028l.09-.027.09-.027.09-.024.09-.025.09-.023.09-.022.09-.022.09-.02.09-.02.09-.018.09-.017.09-.017.09-.015.09-.015.09-.014.09-.013.09-.013.09-.01.09-.01c.03-.004.06-.008.09-.01l.09-.009.09-.008.09-.006.09-.006.09-.006.09-.004.09-.003.09-.003.09-.001.09-.001H97.038Z"/><path fill="#227FBB" d="m22.802 42.209-.193-.093V19.11a9.347 9.347 0 0 1 .732-3.625 9.328 9.328 0 0 1 .899-1.639l.09-.13.09-.122.09-.12c.029-.04.059-.079.089-.117l.09-.112a8.95 8.95 0 0 1 .18-.215l.09-.102c.029-.034.059-.067.09-.1l.089-.097a8.942 8.942 0 0 1 .18-.186l.09-.089.09-.087c.029-.029.059-.056.089-.084l.09-.083.09-.08.09-.078.09-.076a8.648 8.648 0 0 1 .449-.354l.09-.065a8.523 8.523 0 0 1 .359-.247l.09-.058.09-.056.09-.055.089-.053.09-.053c.03-.018.06-.034.09-.05l.09-.05.09-.049.09-.047.09-.046.089-.044.09-.044.09-.042.09-.042.09-.039.089-.04.09-.036.09-.037.09-.036.09-.034.09-.034.09-.031.089-.032.09-.03.09-.03.09-.028.09-.027.09-.026.089-.025.09-.024.09-.024.09-.022.09-.022.089-.02.09-.02.09-.018.09-.017.09-.018.09-.015.09-.015.089-.014.09-.013.09-.013.09-.01.09-.011.09-.01.089-.008.09-.008.09-.007.09-.006.09-.006.089-.004.09-.003.09-.004h.09l.09-.002H45.605v46.578a9.4 9.4 0 0 1-.345 2.52 9.329 9.329 0 0 1-1.348 2.834 9.123 9.123 0 0 1-.539.693l-.09.104-.09.1-.09.098c-.03.032-.059.064-.09.095a9.493 9.493 0 0 1-.359.355l-.09.083-.09.08c-.03.027-.059.054-.09.08l-.089.076-.09.076-.09.072-.09.072-.09.069c-.03.023-.059.046-.09.068l-.089.066-.09.065-.09.062-.09.062-.09.059c-.03.02-.059.04-.09.059l-.089.056-.09.056-.09.053-.09.053-.09.051a8.119 8.119 0 0 1-.179.1l-.09.047-.09.046-.09.045-.09.044-.09.042-.089.042-.09.04-.09.04-.09.037-.09.037-.09.036-.089.034-.09.034-.09.033-.09.031-.09.031-.09.03-.089.028-.09.027-.09.027-.09.025-.09.025-.09.024-.089.022-.09.022-.09.02-.09.02-.09.02c-.03.006-.06.01-.09.017l-.089.017-.09.016-.09.015-.09.015-.09.013-.09.012-.089.012-.09.01c-.03.004-.06.008-.09.01l-.09.01-.09.007-.09.008-.089.006-.09.006-.09.004-.09.004-.09.003-.09.002-.089.001-.083.001H22.609V46.055l.193.05.09.022.09.022.09.022.09.021.09.021.09.02.09.02.089.02.09.02.09.02.09.02.09.018.089.019.09.018.09.018.09.018.09.018.09.017.09.018.089.017.09.017.09.016.09.017.09.016.09.016.089.016.09.015.09.015.09.016.09.014.089.015.09.015.09.014.09.014.09.014.09.014.09.013.089.014.09.013.09.013.09.013.09.012.09.012.089.013.09.012.09.011.09.012.09.011.089.012.09.01.09.011.09.01.09.011.09.01.09.01.089.01.09.01.09.01.09.009.09.009.089.009.09.009.09.008.09.008.09.009.09.007.09.008.089.008.09.007.09.007.09.007.09.007.09.006.089.007.09.006.09.006.09.005.09.006.089.005.09.006.09.004.09.005.09.005.09.004.09.004.089.004.09.004.09.004.09.003.09.003.09.003.089.003.09.002.09.003.09.002.09.002.089.001.09.002.09.001h.09l.09.002h.18l.089.001h.18l.09-.001h.09l.09-.001.089-.002.09-.002.09-.001.09-.002.09-.002.089-.003.09-.003.09-.002.09-.003.09-.004.09-.004.09-.004.089-.004.09-.005.09-.005.09-.006.09-.005.089-.006.09-.006.09-.007.09-.006.09-.007.09-.008.09-.008.089-.008.09-.008.09-.01.09-.008.09-.01.09-.01.089-.01.09-.01.09-.011.09-.012.09-.012.089-.012.09-.012.09-.014.09-.013.09-.014.09-.014.09-.015.089-.015.09-.015.09-.017.09-.016.09-.017.09-.018.089-.018.09-.019.09-.019.09-.02.09-.02.089-.02.09-.022.09-.022.09-.022.09-.024.09-.024.09-.024.089-.025.09-.026c.03-.01.06-.018.09-.026l.09-.028.09-.028.09-.028.089-.03.09-.03.09-.031.09-.033.09-.032.089-.034.09-.035.09-.035.09-.036.09-.038.09-.038.09-.04.089-.04.09-.042.09-.043.09-.044.09-.046.09-.046.089-.049a8.502 8.502 0 0 0 .27-.152l.09-.054.09-.056.089-.057.09-.06.09-.06.09-.064.09-.065.09-.068a6.649 6.649 0 0 0 .269-.217l.09-.077.09-.081.089-.083a5.891 5.891 0 0 0 .18-.18l.09-.093.09-.1a5.803 5.803 0 0 0 .628-.852 5.88 5.88 0 0 0 .54-1.15 6.484 6.484 0 0 0 .179-.613 7.326 7.326 0 0 0 .18-1.066c.03-.304.044-.613.044-.927V28.784H35.67v10.808c0 .17-.007.336-.022.5a5.168 5.168 0 0 1-.18.966 4.582 4.582 0 0 1-.269.7 4.124 4.124 0 0 1-.629.936 3.802 3.802 0 0 1-.449.43 4.44 4.44 0 0 1-.539.374 4.757 4.757 0 0 1-1.168.487l-.09.024a5.457 5.457 0 0 1-.538.112l-.09.014a6.687 6.687 0 0 1-.18.023l-.09.01-.09.009-.09.008a6.883 6.883 0 0 1-.18.011l-.089.004-.09.003-.09.002-.09.001h-.179l-.09-.002-.09-.002-.09-.002-.09-.003-.09-.003-.09-.005-.089-.004-.09-.006-.09-.005-.09-.007-.09-.007-.09-.007-.089-.008-.09-.009-.09-.01-.09-.009-.09-.01-.09-.01-.089-.012-.09-.012-.09-.013-.09-.013-.09-.013-.09-.014-.089-.015-.09-.015-.09-.015-.09-.016-.09-.017-.09-.017-.089-.018-.09-.018-.09-.019-.09-.019-.09-.02-.09-.02-.089-.02-.09-.022-.09-.022-.09-.022-.09-.022-.09-.024-.089-.024-.09-.024-.09-.024-.09-.025-.09-.026-.09-.026-.089-.027-.09-.027-.09-.027-.09-.028-.09-.029-.09-.029-.089-.029-.09-.03-.09-.03-.09-.03-.09-.032-.09-.032-.089-.032-.09-.032-.09-.033-.09-.033-.09-.034-.09-.034-.089-.035-.09-.035-.09-.036-.09-.036-.09-.036-.09-.037-.089-.037-.09-.038-.09-.038-.09-.038-.09-.04-.09-.039-.089-.04-.09-.04-.09-.04-.09-.04-.09-.042-.09-.042-.089-.042-.09-.042Z"/><path fill="#E94B35" d="M48.908 31.145c-.066.053-.13.107-.193.16V19.11a9.35 9.35 0 0 1 .732-3.624 9.492 9.492 0 0 1 .629-1.224 8.91 8.91 0 0 1 .27-.415c.03-.043.059-.087.09-.13l.089-.123.09-.12.09-.116.09-.112a9.06 9.06 0 0 1 .18-.215c.029-.035.059-.068.09-.102l.089-.1a9.148 9.148 0 0 1 .18-.191l.09-.092.09-.089.089-.088.09-.083.09-.083.09-.08.09-.079.09-.075a10.829 10.829 0 0 1 .359-.287 9.708 9.708 0 0 1 .628-.437c.03-.02.06-.038.09-.056l.09-.056.09-.053.09-.053.09-.05.09-.05.09-.048.09-.048.089-.045.09-.045.09-.044.09-.041.09-.042.09-.04.089-.039.09-.037.09-.037.09-.035.09-.035c.03-.01.059-.023.09-.034l.09-.031.089-.032.09-.03.09-.029.09-.029.09-.026.09-.027.089-.025.09-.024.09-.024.09-.022.09-.022.09-.02.089-.02.09-.018.09-.017.09-.018.09-.015.09-.015.089-.014.09-.013.09-.013.09-.01.09-.011.09-.01.089-.008.09-.008.09-.007.09-.006.09-.006.09-.004.089-.003.09-.004h.09l.09-.002H71.713v46.578a9.391 9.391 0 0 1-.435 2.82A9.31 9.31 0 0 1 70.2 61.46l-.09.136a9.747 9.747 0 0 1-.45.606c-.03.037-.059.074-.09.11l-.09.107-.089.103-.09.101-.09.097-.09.096-.09.092a9.284 9.284 0 0 1-.269.262l-.09.084-.09.08-.09.08-.09.076-.09.075-.089.073-.09.072-.09.068-.09.069-.09.065c-.03.022-.059.044-.09.065l-.089.062-.09.062-.09.06c-.03.02-.06.04-.09.058l-.09.057-.09.056-.089.053-.09.053-.09.051-.09.05-.09.049-.09.047-.089.047-.09.044-.09.045-.09.042-.09.042-.09.04-.089.039-.09.038-.09.037-.09.036-.09.034-.09.034-.089.032-.09.032-.09.03-.09.03-.09.03-.09.026-.09.027-.089.025-.09.025-.09.024-.09.022-.09.022-.09.02-.089.02-.09.02c-.03.005-.06.01-.09.017l-.09.017-.09.016-.09.015-.089.015-.09.013-.09.012-.09.012-.09.01-.09.01-.089.01-.09.007-.09.008-.09.006-.09.006-.09.004-.089.004-.09.003-.09.002-.09.001-.083.001H48.715V44.179a8.648 8.648 0 0 0 .373.301l.09.068.09.066a9.22 9.22 0 0 0 .179.128l.09.061.09.06.09.059.09.057.09.056.089.054.09.054.09.052.09.05.09.05.09.049.089.048.09.046.09.046.09.044.09.044.09.042.09.042.089.041.09.04.09.039.09.038.09.038.089.036.09.036.09.036.09.034.09.034.09.032.09.033.089.031.09.032.09.03.09.03.09.029.09.028.089.028.09.027.09.027.09.026.09.026.09.025.089.024.09.024.09.024.09.022.09.023.09.022.089.022.09.02.09.02.09.02.09.02.09.02.089.018.09.019.09.017.09.018.09.017.09.016.09.017.089.015.09.016.09.015.09.014.09.015.09.013.089.014.09.013.09.013.09.013.09.012.09.011.089.012.09.01.09.012.09.01.09.01.09.01.089.01.09.009.09.009.09.008.09.009.09.007.089.008.09.008.09.007.09.006.09.007.09.006.089.006.09.006.09.005.09.006.09.005.09.004.09.005.089.004.09.004.09.003.09.004.09.003.09.003.089.003.09.002.09.002.09.003.09.001.09.002.089.001.09.001.09.001h.09l.09.001H60.227l.09-.002h.09l.09-.002.089-.001.09-.002.09-.002.09-.002.09-.002.089-.002.09-.003.09-.003.09-.003.09-.003.09-.003.09-.004.089-.003.09-.004.044-.002.046-.002.09-.005.09-.004.09-.005.089-.006.09-.005.09-.006.09-.006.09-.007.09-.007.089-.007.09-.007.09-.008.09-.008.09-.008.09-.008.089-.009.09-.009.09-.009.09-.01.09-.01.09-.009.089-.01.09-.01.09-.011.09-.01.09-.012.09-.011.09-.012.089-.011.09-.012.09-.012.09-.013.09-.012.09-.013.089-.013.09-.013.09-.013.09-.014.09-.013.09-.014.089-.014.09-.015.09-.014.09-.015.09-.015.09-.014.089-.016.09-.015.09-.016.09-.015.09-.016.09-.016.09-.017.089-.016.09-.017.09-.016.09-.017.09-.018.089-.017.09-.017.09-.018.09-.018.09-.018.09-.018.09-.019.089-.018.09-.019.09-.019.09-.019.09-.02.09-.019.089-.02.09-.02.09-.02.09-.02.09-.02.09-.021.089-.021.09-.021.09-.022.089-.022v-3.94l-.09.044-.09.044-.089.044-.09.043-.09.044-.09.042-.09.043-.09.041-.09.042-.089.04-.09.041-.09.04-.09.04-.09.039-.09.039-.089.038-.09.037-.09.038-.09.036-.09.037-.09.035-.089.036-.09.034-.09.035-.09.033-.09.034-.09.032-.089.033-.09.031-.09.032-.09.03-.09.03-.09.03-.089.03-.09.028-.09.028-.09.028-.09.027-.09.026-.089.027-.09.025-.09.025-.09.025-.09.024-.09.023-.09.023-.089.023-.09.022-.09.021-.09.021-.09.02-.09.02-.089.02-.09.02-.09.018-.09.018-.09.018-.09.016-.089.017-.09.016-.09.015-.09.015-.09.015-.09.014-.089.014-.09.013-.09.012-.09.012-.09.012-.09.011-.089.01-.09.01-.09.01-.09.01-.09.009-.09.008-.09.008-.089.007-.054.004-.036.003-.09.006-.09.006-.09.005-.09.004-.089.004-.09.003-.09.003-.09.002-.09.002h-.269l-.09-.001-.09-.002-.09-.003-.09-.003-.089-.004-.09-.005-.09-.005-.09-.006-.09-.008-.09-.007-.09-.009-.089-.009-.09-.01-.09-.011-.09-.012-.09-.013-.089-.013-.09-.015-.09-.015-.09-.017-.09-.016-.09-.02-.09-.018-.089-.02-.09-.022-.09-.023-.09-.023-.09-.025-.09-.025a7.894 7.894 0 0 1-.269-.085l-.09-.03-.09-.033-.09-.033-.089-.035-.09-.036-.09-.038-.09-.04-.09-.04-.09-.043a6.71 6.71 0 0 1-.179-.09l-.09-.048-.09-.05-.09-.052a6.664 6.664 0 0 1-.179-.11l-.09-.058-.09-.062-.09-.063-.09-.066a5.53 5.53 0 0 1-.179-.14l-.09-.075a5.348 5.348 0 0 1-.45-.431 5.137 5.137 0 0 1-.358-.43 5.24 5.24 0 0 1-.54-.882 5.865 5.865 0 0 1-.359-.92 6.62 6.62 0 0 1-.18-.753 7.725 7.725 0 0 1-.09-.66 8.73 8.73 0 0 1 .09-2.271 7.085 7.085 0 0 1 .18-.754 6.47 6.47 0 0 1 .27-.728 5.793 5.793 0 0 1 .539-.952 5.405 5.405 0 0 1 .808-.905l.09-.079.09-.074a6.011 6.011 0 0 1 .18-.141l.09-.066.09-.063c.03-.021.059-.042.09-.062l.089-.058a5.512 5.512 0 0 1 .18-.11l.09-.052c.03-.017.059-.034.09-.05.029-.017.06-.032.09-.048a6.773 6.773 0 0 1 .269-.133l.09-.041.09-.04.09-.037c.029-.013.059-.024.089-.036l.09-.036.09-.033.09-.032.09-.03a7.928 7.928 0 0 1 .269-.085l.09-.026.09-.025.09-.023.09-.023.09-.02c.029-.008.059-.015.089-.021l.09-.02.09-.018.09-.017.09-.017.09-.015.089-.014.09-.014.09-.013.09-.011.09-.011.09-.01.089-.01.09-.009.09-.007.09-.007.09-.006.09-.006.09-.005.089-.003.09-.004.09-.002.09-.002.09-.002h.269l.09.002.09.002.09.003.09.003.089.004.09.005.09.004.09.006.09.006.035.003.054.004.09.007.09.008.09.008.09.009.09.009.09.01.089.01.09.01.09.011.09.012.09.011.09.013.089.013.09.013.09.014.09.014.09.015.09.016.089.016.09.016.09.017.09.017.09.018.09.018.09.019.089.02.09.02.09.02.09.02.09.022.09.022.089.022.09.023.09.024.09.023.09.025.09.025.089.026.09.026.09.026.09.027.09.028.09.028.089.029.09.029.09.03.09.03.09.03.09.032.09.032.089.032.09.033.09.033.09.034.09.035.089.034.09.036.09.036.09.036.09.037.09.038.09.038.089.038.09.039.09.04.09.04.09.04.09.04.089.042.09.041.09.043.09.042.09.043.09.044.089.044.09.044.09.045.089.045v-3.944l-.09-.022-.09-.021-.089-.022-.09-.02-.09-.021-.09-.02-.09-.021-.09-.02-.09-.02-.089-.02-.09-.02-.09-.019-.09-.019-.09-.019-.09-.018-.089-.019-.09-.018-.09-.019-.09-.018-.09-.017-.09-.018-.089-.018-.09-.017-.09-.017-.09-.017-.09-.017-.09-.016-.089-.017-.09-.016-.09-.016-.09-.016-.09-.016-.09-.015-.089-.016-.09-.015-.09-.015-.09-.015-.09-.014-.09-.015-.089-.014-.09-.014-.09-.014-.09-.013-.09-.014-.09-.013-.09-.013-.089-.013-.09-.013-.09-.012-.09-.013-.09-.012-.09-.012-.089-.011-.09-.012-.09-.01-.09-.012-.09-.01-.09-.011-.089-.01-.09-.01-.09-.01-.09-.01-.09-.01-.09-.008-.089-.01-.09-.008-.09-.009-.09-.008-.09-.007-.09-.008-.089-.007-.09-.007-.09-.007-.09-.007-.09-.006-.09-.006-.09-.005-.089-.006-.09-.004-.09-.005-.09-.005-.045-.002-.044-.002-.09-.003-.09-.004-.09-.004-.09-.003-.09-.003-.09-.003-.09-.003-.089-.002-.09-.003-.09-.002-.09-.002-.09-.002-.09-.002h-.089l-.09-.002-.09-.001h-.09l-.09-.001h-.09l-.09-.001h-.269l-.09.001-.09.001-.089.001-.09.002-.09.001-.09.002-.09.002-.09.002-.09.002-.089.003-.09.003-.09.003-.09.004-.09.004-.09.003-.089.005-.09.004-.09.005-.09.005-.09.005-.09.005-.089.006-.09.006-.09.006-.09.007-.09.007-.09.007-.089.008-.09.007-.09.008-.09.008-.09.009-.09.009-.089.01-.09.008-.09.01-.09.01-.09.01-.09.012-.089.01-.09.012-.09.012-.09.012-.09.013-.09.012-.09.014-.089.013-.09.014-.09.014-.09.015-.09.015-.09.015-.089.016-.09.016-.09.017-.09.017-.09.018-.09.017-.089.019-.09.018-.09.02-.09.02-.09.02-.09.02-.089.02-.09.022-.09.022-.09.023-.09.022-.09.024-.089.024-.09.024-.09.026-.09.025-.09.026-.09.027-.09.027-.089.028-.09.029-.09.028-.09.03-.09.03-.09.032-.089.031-.09.033-.09.033-.09.034-.09.034-.09.035-.089.036-.09.037-.09.037-.09.039-.09.039-.09.04-.089.04-.09.042-.09.043-.09.043-.09.045-.09.046-.089.046-.09.048-.09.048-.09.05-.09.051-.09.052a10.563 10.563 0 0 0-.179.108l-.09.056-.09.057-.09.059-.09.06-.089.061a10.587 10.587 0 0 0-.18.128l-.09.066a9.466 9.466 0 0 0-.269.21Z"/></g></svg>